<?xml version="1.0" standalone="no"?>
<!DOCTYPE svg PUBLIC "-//W3C//DTD SVG 20010904//EN"
 "http://www.w3.org/TR/2001/REC-SVG-20010904/DTD/svg10.dtd">
<svg version="1.0" xmlns="http://www.w3.org/2000/svg"
 width="512.000000pt" height="512.000000pt" viewBox="0 0 512.000000 512.000000"
 preserveAspectRatio="xMidYMid meet">
<metadata>
Created by potrace 1.16, written by Peter Selinger 2001-2019
</metadata>
<g transform="translate(0.000000,512.000000) scale(0.100000,-0.100000)"
fill="#000000" stroke="none">
<path d="M2404 4806 c-17 -8 -41 -29 -54 -47 -12 -19 -34 -44 -49 -56 -25 -22
-25 -23 -4 -23 14 0 33 17 57 50 43 60 75 75 122 60 41 -14 64 -44 64 -83 0
-33 -10 -54 -56 -114 -27 -35 -34 -54 -34 -89 0 -41 -2 -44 -27 -44 -16 0 -41
-7 -56 -15 -24 -12 -106 -15 -515 -15 l-487 -1 -27 30 c-34 38 -48 88 -48 174
0 51 -3 68 -12 64 -9 -3 -13 -30 -12 -93 1 -125 32 -183 117 -219 31 -13 104
-15 484 -15 l448 -1 -55 -50 c-250 -228 -295 -260 -612 -441 -100 -57 -200
-120 -222 -140 -23 -21 -60 -51 -83 -68 -24 -16 -54 -47 -67 -67 -35 -52 -126
-309 -192 -537 -109 -379 -129 -479 -180 -891 -87 -714 -106 -925 -108 -1189
l-1 -190 33 -22 c66 -45 285 -50 474 -11 l118 24 -3 -108 -2 -109 32 -31 c18
-16 33 -27 33 -24 0 4 7 -1 16 -9 8 -9 19 -14 24 -11 5 3 10 1 12 -4 9 -25
407 -117 625 -144 88 -11 125 -21 172 -46 46 -24 73 -31 115 -31 100 0 637
122 738 167 33 15 73 42 91 63 18 20 48 42 68 49 62 20 72 39 64 119 l-7 69
144 6 c78 3 177 13 218 22 81 18 183 62 175 75 -3 4 21 11 52 15 84 10 86 12
79 59 -3 23 -13 140 -21 261 -37 526 -109 1112 -186 1505 -59 301 -232 950
-272 1024 -32 59 -130 120 -404 256 -167 82 -246 126 -254 142 -7 13 -22 30
-33 38 -12 8 -55 47 -97 87 -42 39 -88 75 -101 78 -13 4 -32 19 -41 35 l-17
29 372 3 c371 3 373 3 411 26 57 36 67 64 67 192 0 91 -3 110 -15 110 -12 0
-15 -19 -15 -113 0 -107 -1 -115 -24 -136 l-25 -23 -407 1 c-337 2 -411 5
-428 17 -11 7 -40 14 -63 14 l-43 0 0 45 c0 34 6 52 28 77 75 87 83 136 30
193 -38 41 -80 51 -124 31z m479 -692 c25 -17 28 -27 37 -109 5 -50 11 -133
14 -186 l6 -95 -39 -22 -40 -22 -67 87 c-84 110 -110 137 -55 58 23 -33 66
-88 97 -122 54 -61 57 -63 105 -63 27 0 49 -4 49 -9 0 -43 -167 -517 -244
-694 -96 -220 -231 -438 -390 -629 -53 -65 -108 -137 -121 -160 -14 -24 -25
-39 -25 -35 0 4 33 110 74 235 84 256 134 428 200 682 64 246 212 864 231 961
22 118 20 210 -6 262 -21 40 -18 39 62 -38 46 -45 96 -90 112 -101z m-645 99
c-26 -76 -36 -337 -19 -450 20 -124 57 -264 122 -453 69 -201 89 -271 89 -306
0 -14 -11 -71 -26 -127 -47 -190 -43 -178 -63 -167 -56 30 -272 419 -369 665
-41 103 -82 222 -82 237 0 4 27 8 59 8 67 0 64 -2 167 110 l68 75 -65 -63 -66
-64 -42 22 c-49 24 -49 1 5 245 23 104 39 154 51 163 55 39 145 119 158 139
27 41 33 25 13 -34z m373 -45 c69 -26 80 -33 77 -52 -3 -19 -8 -20 -48 -16
-25 3 -99 5 -165 5 -106 -1 -127 -4 -183 -27 l-63 -26 3 25 c4 35 38 58 144
98 102 38 118 38 235 -7z m-181 -535 c0 -272 -4 -454 -10 -463 -5 -8 -10 -13
-10 -10 0 3 -23 73 -50 155 -90 268 -130 460 -130 627 0 76 2 89 19 98 28 15
121 39 154 39 l27 1 0 -447z m184 431 c21 -20 20 -75 -1 -172 -9 -42 -17 -94
-17 -114 0 -21 -4 -38 -8 -38 -4 0 -5 -6 -2 -14 3 -8 0 -17 -5 -21 -6 -3 -9
-11 -5 -16 3 -6 -2 -19 -12 -30 -13 -15 -14 -19 -3 -19 10 -1 9 -4 -3 -14 -10
-7 -18 -17 -18 -21 0 -5 3 -5 7 -2 7 8 32 -23 33 -41 0 -7 -5 -10 -10 -7 -6 4
-7 11 -4 17 4 7 2 8 -5 4 -6 -4 -9 -12 -6 -17 4 -5 1 -9 -4 -9 -6 0 -11 5 -11
12 0 6 -3 8 -6 5 -4 -4 -1 -13 5 -21 10 -11 9 -16 -1 -23 -8 -4 -26 -71 -42
-153 -15 -80 -32 -154 -36 -165 -5 -11 -9 175 -9 428 l-1 447 74 0 c54 0 79
-4 90 -16z m-627 -71 c-8 -27 -25 -111 -38 -187 -21 -130 -21 -140 -6 -151 16
-11 16 -13 -5 -19 -13 -3 -35 -6 -49 -6 -14 0 -33 -8 -42 -17 -14 -17 -14 -24
7 -83 32 -89 233 -511 291 -607 25 -43 75 -118 110 -168 38 -53 65 -100 65
-115 0 -34 -43 -199 -75 -290 -15 -41 -62 -147 -106 -235 -43 -88 -83 -180
-88 -205 -13 -58 -14 -159 -1 -235 6 -33 10 -188 10 -345 0 -460 33 -632 156
-802 l35 -49 -53 6 c-109 13 -366 56 -446 75 -150 36 -194 70 -186 149 2 25 9
109 14 186 10 128 48 466 53 471 7 7 57 -10 57 -20 0 -6 -13 -105 -30 -221
-16 -115 -32 -261 -34 -325 l-5 -115 10 100 c5 55 20 186 35 290 14 105 28
211 31 236 l5 45 97 -13 c131 -17 187 -16 216 3 24 15 25 21 23 103 l-2 86 -5
-85 c-5 -71 -9 -85 -24 -88 -24 -5 -360 48 -370 58 -5 4 -4 34 3 66 19 97 12
90 88 87 69 -4 243 -21 297 -29 22 -4 26 -3 15 4 -19 13 -136 29 -272 38
l-108 7 7 26 c3 14 7 28 9 30 1 2 66 -2 144 -9 78 -7 144 -9 147 -6 4 3 -6 6
-20 6 -15 0 -27 3 -27 8 0 4 -55 8 -123 10 -67 2 -123 5 -124 6 -1 1 2 40 8
87 6 46 14 260 19 474 5 215 14 426 19 470 6 44 10 159 10 255 1 285 -25 437
-104 597 -44 89 -121 200 -132 189 -3 -3 10 -23 29 -45 42 -49 109 -183 137
-271 56 -176 70 -498 37 -809 -9 -85 -16 -197 -16 -250 -1 -53 -7 -132 -15
-176 -43 -228 -76 -432 -100 -597 -26 -185 -45 -295 -91 -533 -32 -163 -32
-165 -50 -165 -20 0 -19 8 30 302 48 287 129 873 123 891 -2 6 -18 -96 -36
-228 -57 -415 -138 -940 -147 -953 -3 -4 -435 28 -453 34 -11 4 -12 25 -6 117
4 61 9 116 12 120 3 5 10 1 17 -8 16 -22 50 -15 54 10 1 11 -4 29 -12 40 -14
19 -15 19 -35 1 -21 -19 -21 -19 -21 12 0 36 2 37 29 20 25 -15 51 4 51 37 0
43 -52 57 -64 17 -3 -10 -3 6 0 33 2 28 15 221 29 430 29 437 51 629 101 892
46 248 83 391 154 603 85 255 101 295 111 279 9 -15 10 -13 14 43 3 39 50 112
98 151 23 20 133 87 243 150 111 63 219 126 240 140 22 14 40 23 42 22 2 -2
-3 -25 -11 -52z m1203 -69 c135 -67 273 -142 307 -168 l62 -47 35 -112 c70
-226 174 -634 236 -927 55 -258 146 -972 175 -1370 9 -118 20 -258 24 -310 5
-52 8 -96 7 -97 -7 -8 -296 -33 -387 -33 l-116 0 -12 78 c-7 42 -28 161 -47
264 -56 311 -132 867 -139 1027 -5 101 4 45 81 -513 15 -110 29 -195 31 -189
4 12 -43 399 -77 631 -44 294 -60 686 -40 922 11 127 42 314 66 400 24 82 81
196 110 219 15 12 22 21 16 21 -19 0 -82 -83 -114 -149 -38 -80 -63 -165 -89
-311 -19 -101 -23 -180 -32 -660 -6 -300 -10 -654 -9 -787 l1 -243 -28 0 c-15
0 -69 -7 -120 -16 -51 -9 -96 -13 -99 -9 -4 4 -10 122 -13 263 l-5 257 -2
-267 -2 -268 -22 -1 c-15 -1 -17 -3 -7 -6 9 -2 69 5 134 17 164 28 175 27 175
-10 0 -30 -1 -30 -52 -30 -62 0 -408 -36 -414 -43 -3 -3 -14 -49 -25 -103 -16
-76 -18 -104 -9 -123 10 -23 14 -24 83 -18 87 6 309 55 318 69 4 6 12 7 19 3
7 -4 15 -3 19 3 3 6 22 13 41 17 l36 6 38 -350 c21 -192 35 -355 32 -360 -9
-14 -131 -52 -326 -99 -91 -23 -225 -59 -299 -82 -210 -63 -281 -54 -397 53
-130 119 -183 237 -204 458 -14 140 -7 846 8 934 5 28 10 45 11 39 2 -17 30
-25 50 -14 10 5 24 24 31 41 13 29 12 33 -10 51 -13 10 -29 17 -37 14 -18 -7
-17 -6 18 67 16 35 73 118 125 183 196 244 362 521 446 742 18 49 22 52 53 52
41 0 53 15 91 115 59 157 174 489 172 497 -2 5 -43 -98 -92 -229 -143 -383
-134 -363 -166 -363 l-28 0 83 248 c46 136 90 271 99 300 l15 52 -46 0 c-40 0
-44 2 -37 18 11 21 11 156 2 280 -5 52 -4 92 0 90 4 -2 118 -57 252 -124z
m104 -2456 c3 -13 8 -48 11 -79 l6 -57 -73 -16 c-107 -24 -224 -43 -306 -52
-97 -9 -102 -4 -102 102 0 73 2 84 18 85 9 0 94 9 187 18 242 26 254 26 259
-1z"/>
<path d="M2518 4173 c7 -3 16 -2 19 1 4 3 -2 6 -13 5 -11 0 -14 -3 -6 -6z"/>
<path d="M1340 3468 c-6 -29 -13 -80 -16 -113 -3 -56 -3 -54 10 20 7 44 16 95
20 113 4 17 5 32 3 32 -3 0 -11 -24 -17 -52z"/>
<path d="M1406 3218 c-7 -112 -7 -286 2 -353 4 -27 7 61 8 198 0 136 0 247 -1
247 -1 0 -5 -41 -9 -92z"/>
<path d="M1967 2778 c-4 -35 -11 -207 -17 -383 -5 -176 -15 -392 -20 -480 -14
-218 -10 -263 6 -80 7 83 17 299 23 480 6 182 13 374 17 428 7 107 0 133 -9
35z"/>
<path d="M1421 2784 c0 -11 3 -14 6 -6 3 7 2 16 -1 19 -3 4 -6 -2 -5 -13z"/>
<path d="M1581 2124 c0 -11 3 -14 6 -6 3 7 2 16 -1 19 -3 4 -6 -2 -5 -13z"/>
<path d="M1998 1623 c7 -3 16 -2 19 1 4 3 -2 6 -13 5 -11 0 -14 -3 -6 -6z"/>
<path d="M960 1119 c-8 -15 -8 -24 0 -34 8 -10 8 -19 -2 -34 -16 -25 -1 -56
27 -56 28 0 43 31 27 56 -8 13 -10 25 -4 32 13 16 -3 57 -22 57 -9 0 -20 -9
-26 -21z"/>
<path d="M3443 3418 c-35 -85 -49 -126 -37 -115 10 10 75 179 71 184 -2 2 -18
-29 -34 -69z"/>
<path d="M3040 3050 c-63 -9 -104 -18 -90 -18 39 -2 229 24 237 31 9 10 -14 7
-147 -13z"/>
<path d="M2985 2978 c-60 -5 -120 -7 -132 -5 -13 2 -23 0 -23 -6 0 -6 45 -6
128 -1 70 5 155 9 190 9 34 0 62 3 62 8 0 9 -78 7 -225 -5z"/>
<path d="M3212 2925 c0 -16 2 -22 5 -12 2 9 2 23 0 30 -3 6 -5 -1 -5 -18z"/>
<path d="M2995 2874 l-110 -13 95 5 c109 6 233 22 165 21 -22 0 -89 -6 -150
-13z"/>
<path d="M2803 2853 c15 -2 37 -2 50 0 12 2 0 4 -28 4 -27 0 -38 -2 -22 -4z"/>
<path d="M2973 2735 c0 -27 2 -38 4 -22 2 15 2 37 0 50 -2 12 -4 0 -4 -28z"/>
<path d="M2955 2630 c3 -47 6 -231 7 -410 l1 -325 9 200 c8 207 2 496 -13 575
-6 34 -7 25 -4 -40z"/>
<path d="M2756 2334 c-9 -8 -16 -26 -16 -39 0 -22 23 -55 39 -55 14 0 51 41
51 56 0 47 -43 70 -74 38z"/>
<path d="M3462 2240 c0 -14 2 -19 5 -12 2 6 2 18 0 25 -3 6 -5 1 -5 -13z"/>
<path d="M3472 2170 c0 -14 2 -19 5 -12 2 6 2 18 0 25 -3 6 -5 1 -5 -13z"/>
<path d="M3482 2100 c0 -19 2 -27 5 -17 2 9 2 25 0 35 -3 9 -5 1 -5 -18z"/>
<path d="M3491 2042 c-1 -22 40 -390 59 -522 5 -36 25 -193 45 -350 20 -157
39 -287 42 -290 3 -3 2 24 -2 60 -10 100 -132 1066 -139 1105 -3 17 -3 17 -5
-3z"/>
<path d="M2730 2000 c-22 -22 -25 -42 -10 -71 23 -41 90 -10 90 42 0 49 -44
65 -80 29z"/>
<path d="M2688 1783 c-8 -10 -18 -25 -21 -34 -7 -22 19 -59 42 -59 25 0 51 32
51 61 0 46 -43 65 -72 32z"/>
<path d="M2211 1766 c-7 -8 -11 -30 -9 -48 2 -26 8 -34 26 -36 28 -4 62 23 62
49 0 40 -55 64 -79 35z"/>
<path d="M3937 1213 c-13 -12 -7 -64 8 -69 13 -5 13 -8 0 -21 -18 -18 -19 -28
-2 -45 7 -7 12 -31 12 -53 0 -33 3 -40 20 -40 22 0 32 34 19 63 -4 9 -6 27 -5
40 2 13 -3 30 -10 38 -10 13 -10 17 1 24 11 7 11 14 0 39 -12 29 -29 39 -43
24z"/>
</g>
</svg>